<svg width="96" height="96" xmlns="http://www.w3.org/2000/svg" xmlns:xlink="http://www.w3.org/1999/xlink" xml:space="preserve" overflow="hidden"><g><path d="M84.38 36.13C83.6416 36.5963 82.7928 36.8586 81.92 36.89 81.05 37.02 80.27 37.25 79.45 37.41 78.7761 37.6338 78.07 37.7453 77.36 37.74 76.62 37.56 76.3 36.61 75.58 36.31 76.08 35.94 76.2 35.73 75.88 35.18 75.3605 34.529 74.7627 33.9445 74.1 33.44 73.2 32.62 72.02 32.44 71.61 31.21 71.4966 30.623 71.3119 30.0522 71.06 29.51 70.74 28.97 70.18 28.75 69.82 28.3 69.08 27.37 69.51 25.91 69.02 24.83 68.75 24.23 68.3 24.06 67.9 23.6 67.5 23.14 67.57 22.77 67.41 22.18 66.8801 20.8694 66.2551 19.5994 65.54 18.38 65.29 17.81 63.77 16.02 64.06 15.38 64.26 14.93 64.75 15.97 64.9 16.21 65.21 16.74 65.32 17.34 66.05 17.4 65.7307 16.4156 65.4669 15.414 65.26 14.4 65.06 13.51 65.13 13.7 64.26 13.57 63.87 13.5 63.54 13.26 63.16 13.17 62.23 12.96 61.66 13.42 60.83 13.67 60.0313 13.8189 59.206 13.714 58.47 13.37 57.01 12.91 55.4 12.94 54.03 12.21 53.28 11.8 53.03 11.28 52.03 11.39 51.35 11.47 50.31 11.91 50.16 12.66 50.01 13.41 50.61 13.84 49.75 14.36 48.89 14.88 48.06 13.89 47.22 13.62 46.58 13.41 45.81 13.49 45.29 13.02 44.99 12.76 45.04 12.34 44.78 12.07 44.3228 11.7841 43.8126 11.5937 43.28 11.51 42.5841 11.4789 41.8919 11.392 41.21 11.25 40.71 11.05 39.14 10.45 39.1 9.87 39.06 9.29 40.28 9.02 40.1 8.13 40.1 7.9 39.47 7.46 39.49 7.21 39.51 6.96 40.17 6.73 39.98 6.26 39.21 6.5 39.08 5.82 38.26 5.9 38.06 5.9 37.57 6.23 37.39 6.27 36.9281 6.3221 36.4619 6.3221 36 6.27 35.4453 6.30197 34.8937 6.37551 34.35 6.49 33.8971 6.51189 33.4433 6.47492 33 6.38 32.0243 6.40774 31.0549 6.54527 30.11 6.79 29.2877 6.95625 28.4954 7.24622 27.76 7.65 27.16 7.91 26.59 8.35 26 8.57 25.145 8.67462 24.2792 8.65441 23.43 8.51 23.1247 8.54581 22.8153 8.50455 22.53 8.39 22.14 8.21 22 7.63 21.53 7.8 21.06 7.97 20.81 9.3 20.53 9.67 20.0592 10.1578 19.4899 10.5396 18.86 10.79 18.2428 11.1789 17.769 11.758 17.51 12.44 17.3386 12.6548 17.2004 12.8942 17.1 13.15 16.91 13.8 17.3 14.36 17.1 15.01 16.9 15.66 15.86 16.46 15.24 16.88 14.62 17.3 13.76 17.31 13.24 17.95 12.98 18.28 12.95 18.69 12.64 19.02 12.33 19.35 12.12 19.28 11.95 19.49 11.64 19.88 11.64 20.49 11.43 20.89 11.1367 21.3746 10.8021 21.8329 10.43 22.26 9.83274 23.0095 9.36003 23.8503 9.03 24.75 8.93 25.3 9.2 25.51 9.43 25.95 9.65224 26.3054 9.75718 26.7217 9.73 27.14 9.88235 27.918 9.96932 28.7075 9.99 29.5 9.76252 30.5322 9.42735 31.5377 8.99 32.5 8.75 33.21 9.07 33.03 9.28 33.73 9.42 34.22 9.22 34.44 9.28 34.93 9.4 36.02 10.07 35.74 10.66 36.23 10.89 36.43 11.21 37.06 11.44 37.31 12.1456 37.905 12.7413 38.6191 13.2 39.42 13.4165 40.2335 13.9166 40.9428 14.61 41.42 15.31 41.89 16.02 42.34 16.69 42.86 17.2626 43.4017 17.909 43.8596 18.61 44.22 19.73 44.68 20.52 44 21.61 43.73 22.6221 43.4852 23.6779 43.4852 24.69 43.73 25.4663 43.9512 26.299 43.8503 27 43.45 28.51 42.82 31.05 41.58 32.73 42.2 33.66 42.55 33.66 43.36 34.16 44.01 34.66 44.66 34.94 44.45 35.6 44.39 36.062 44.294 36.5296 44.2272 37 44.19 37.85 44.19 37.35 44.24 38 44.61 39 45.23 39.1 46.03 38.87 47.19 38.8116 47.9934 38.6811 48.79 38.48 49.57 38.12 50.42 37.8 50.37 38.37 51.3 38.9092 52.1161 39.5363 52.8706 40.24 53.55 40.9609 54.2997 41.4834 55.2174 41.76 56.22 42.02 56.97 42.82 57.91 42.84 58.7 42.84 59 42.6 59.29 42.6 59.5 42.6478 59.9457 42.7838 60.3774 43 60.77 43.4658 61.5094 43.4658 62.4506 43 63.19 42.3955 63.9498 41.9285 64.8094 41.62 65.73 41.11 67.54 40.72 69 41.76 70.73 42.29 71.58 42.76 72.48 43.2 73.35 43.748 74.2904 44.0539 75.3522 44.09 76.44 44.15 77.16 44.4 77.84 44.5 78.55 44.6134 79.4037 44.8704 80.232 45.26 81 45.66 81.71 46.38 82.13 46.75 82.86 47.12 83.59 47.56 84.67 47.99 85.55 48.17 85.93 48.42 86.14 48.4 86.61 48.4 86.82 47.98 87.39 47.99 87.53 48.1891 88.2525 48.644 88.878 49.27 89.29 50.45 90.06 51.82 88.99 53.13 88.79 53.99 88.66 54.86 88.99 55.7 88.79 56.5283 88.6382 57.3367 88.3933 58.11 88.06 59.7662 87.134 61.1466 85.7847 62.11 84.15 63.02 82.61 64.61 81.64 64.46 79.61 64.46 79.07 64.15 79.02 64.46 78.49 64.69 78.15 65.35 77.95 65.7 77.79 66.56 77.42 67.1 77.34 67.28 76.34 67.4209 75.2266 67.2549 74.0959 66.8 73.07 66.59 72.47 66.35 72.39 66.64 71.76 66.93 71.13 67.72 70.89 68.16 70.52 68.7267 69.9082 69.357 69.3585 70.04 68.88 70.9513 68.5666 71.7814 68.0542 72.47 67.38 73.29 66.38 73.13 65.82 72.98 64.64 72.85 63.64 73.25 62.18 72.84 61.26 72.43 60.34 71.84 59.89 71.65 58.79 71.59 58.33 71.88 57.52 71.78 57.17 71.68 56.82 71.13 56.6 71.09 55.99 71.03 55.13 72.09 53.42 72.53 52.72 73.0818 52.0647 73.6765 51.4467 74.31 50.87 75.0024 49.9649 75.7612 49.1126 76.58 48.32 77.44 47.57 78.47 47.08 79.34 46.32 80.8679 44.9566 82.1117 43.3051 83 41.46 83.6293 40.4861 84.165 39.4548 84.6 38.38 84.62 38.17 85.12 35.52 84.38 36.13ZM62.58 59C62.34 59.37 60.92 57.1 60.76 56.81 60.3147 55.6964 60.1934 54.4796 60.41 53.3 60.99 54.3 60.94 55.59 61.41 56.5 61.61 56.93 62.94 58.45 62.58 59ZM65.43 51.32C65.28 51.81 65.59 52.08 64.9 52.17 64.3934 52.2534 63.8766 52.2534 63.37 52.17 62.93 51.91 63.24 50.22 63.37 49.88 63.64 49.26 63.98 49.29 64.53 49.14 65.46 48.89 65.73 49.33 66.6 49.6 66.0651 50.0601 65.6615 50.6535 65.43 51.32ZM65.92 63.32C65.84 62.32 65.81 61.14 65.81 60.13 66.51 60.13 66.81 61.89 66.89 62.41 66.97 62.93 66.7 63.41 66.76 63.88 66.82 64.35 67.16 64.81 67.11 65.24 66.22 65.31 66 64.2 65.92 63.35Z"/><path d="M82.1 64.48C81.6366 65.2136 81.0822 65.8856 80.45 66.48 79.7328 66.8897 78.9755 67.2247 78.19 67.48 77.3239 67.9267 76.8618 68.8959 77.06 69.85 77.2529 70.4262 77.3935 71.0186 77.48 71.62 77.3588 72.2059 77.1057 72.7565 76.74 73.23 76.01 74.5 76.46 75.09 76.64 76.42 76.82 77.75 77.31 77.91 78.37 78.42 79.43 78.06 80.21 77.98 80.65 76.9 81.09 75.82 81.45 74.4 81.84 73.17 82.3173 71.984 82.7051 70.7639 83 69.52 83.14 68.58 83.18 67.69 83.33 66.77L84 67C84.1222 65.842 83.881 64.6748 83.31 63.66 82.44 62.62 82.52 63.88 82.1 64.48Z"/></g></svg>