<svg width="96" height="96" viewBox="0 0 96 96" xmlns="http://www.w3.org/2000/svg" xmlns:xlink="http://www.w3.org/1999/xlink"  ><g><path d="M47.9 12.11C50.75 12.36 53.9 12.31 56.43 13.37 56.8917 14.0373 57.6227 14.4686 58.43 14.55 58.98 16.04 65.52 16.35 66.34 16.63 67.16 16.91 67.34 19.13 67.78 20.4L68.95 19.08C72.05 19.66 73.8 20.16 76.23 22.16L77.29 21.7C81.53 23.82 81.74 35.57 79.98 39.45 82.33 40.07 84.07 41.79 86.59 41.68L86.69 41.79C87.55 42.6 87.69 44.47 87.13 46.1 86.13 49.02 87.48 49.33 87.91 51.64 88.152 53.5471 87.777 55.4815 86.84 57.16 85.91 59.16 85.54 57.62 84.22 59.97L83.3 60.33C84.5 61.53 85.01 62.79 84.11 64.14 83.54 64.99 81.58 64.66 81.47 65.68 81.4377 66.9082 81.1977 68.122 80.76 69.27 81.04 68.76 79.69 69.27 79.07 69.35L79.76 70.48C79.0228 71.7669 77.5948 72.4966 76.12 72.34L77.29 74.08 77.23 74.39C75.62 74.97 74.92 75.88 75.1 77.12 72.76 77.47 70.46 80.9 68.27 80.46 68.27 80.35 67.27 80.2 67.27 80.08L67.17 80.42 65.87 80C65.8314 79.5799 65.5882 79.2059 65.22 79L64.78 79.86C61.97 81.13 59.26 82.04 56.45 79.93 55.84 80.29 53.33 80.14 52.29 80.4 51.4542 79.7605 50.5754 79.1791 49.66 78.66L50.1 77.66C50.65 77.53 51.1 77.29 50.98 76.66 52.53 74.82 51.83 74.34 52.98 72.52L52.48 70.62C53.48 69.45 51.41 67.46 50.08 69.22 45.9 69.9 41.88 67.3 37.61 67.35L36.48 68.28C34.91 68.28 32.67 67.69 31.27 68.53 29.64 69.53 24.33 67.12 21.53 64.98 22.07 65.39 21.53 63.68 21.53 63.08L19.78 62.92C18.59 60.44 19.78 59.3 19.34 57.05 17.71 57.43 17.48 57.23 17.86 55.88 18.0283 55.1734 17.6159 54.4582 16.92 54.25L16.63 53 16.27 53.07 16.33 54.07C15.5954 54.076 14.8707 53.9008 14.22 53.56 13.3262 52.7628 12.9098 51.5591 13.12 50.38L14.76 50.38C15.29 49.71 14.66 46.55 14.76 45.56 15.5985 45.0688 16.1741 44.2292 16.33 43.27L17.13 43.21 16.23 40.56 15.17 41.51C15.3873 39.8639 14.5413 38.2601 13.06 37.51L12.54 38.51C11.24 38.42 10.92 37.29 10.33 36.45 10.49 35.18 11.56 34.88 12.8 34.39 8.47 31.39 6.16 29.28 6.38 23.55 16.46 29.97 19.19 34.55 31.28 32.08L31 30.8C31.3912 30.2468 32.0853 29.9955 32.74 30.17 32.74 29.95 33.52 26.92 33.31 26.64 33.51 25.82 34.1 21.86 35.24 20.28 35.62 19.74 35.24 18.96 35.24 18.28 36.74 16.68 39.05 14.02 41.32 13.73L40.81 12.36C41.6724 12.2194 42.534 12.6147 42.99 13.36 44.63 12.36 45.77 11.46 45.99 11.91 46.6325 11.8973 47.2741 11.9645 47.9 12.11Z"/></g></svg>

