<svg width="96" height="96" viewBox="0 0 96 96" xmlns="http://www.w3.org/2000/svg" xmlns:xlink="http://www.w3.org/1999/xlink"  ><g><path d="M2.82 50C3.9 48.93 3.34 48.6 2.82 47.35 2.52382 46.776 2.48742 46.1026 2.72 45.5 2.85941 44.7867 2.95293 44.0652 3 43.34 3.64 43.66 3.38 43.66 3.85 43.34 4.17 43.11 4.33 42.78 4.69 42.56 5.05 42.34 5.69 41.9 6.2 41.56 6.96 41.09 7.62 41.29 8.43 41.07 9.24 40.85 9.88 40.4 10.67 40.21 11.4219 40.1224 12.1566 39.9236 12.85 39.62 13.4352 39.153 13.9184 38.571 14.27 37.91 14.78 37.19 14.36 36.91 14.65 36.21 14.7625 35.9346 14.9726 35.7103 15.24 35.58 15.85 35.4 15.89 35.82 16.24 36.32 16.75 35.87 16.7 35.57 16.62 34.9 16.81 34.9 17.62 35.09 17.76 34.98 17.9 34.87 17.76 33.98 17.92 33.75 18.08 33.52 18.46 33.42 18.63 33.2 18.8 32.98 18.83 32.64 19.07 32.43 19.7286 31.9712 20.4633 31.6326 21.24 31.43 22.18 31.43 22.45 32.76 23.13 32.93 23.6051 32.985 24.0849 32.985 24.56 32.93 25.04 32.79 24.84 32.75 24.87 32.33 24.9 31.91 24.75 31.97 24.87 31.63 24.99 31.29 25.35 31.03 25.53 30.71 25.91 30.08 26.09 29.52 26.89 29.22 27.44 29.01 28.26 29.3 28.77 28.94 28.96 28.81 28.96 28.51 29.11 28.38 29.45 28.09 28.97 28.18 29.47 28.13 29.7114 28.1722 29.9445 28.2533 30.16 28.37 31.102 28.6506 32.0651 28.8546 33.04 28.98 33.341 29.0883 33.6482 29.1785 33.96 29.25 34.21 29.25 34.33 28.9 34.6 29.09 35.18 29.49 33.69 30.52 33.6 30.76 33.51 31 33.51 31.51 33.36 31.84 33.21 32.17 32.83 32.42 33 32.84 33.31 33.56 34.74 34.17 35.39 34.54 36.04 34.91 36.9 35.29 37.62 35.7 38.34 36.11 39.07 37.16 40.01 36.79 41.65 36.15 41.52 32.79 41.55 31.42 41.5881 30.4952 41.7529 29.58 42.04 28.7 42.24 28.06 42.43 26.83 43.11 27.7 43.578 28.5087 43.9155 29.3861 44.11 30.3 44.184 30.7323 44.2842 31.1598 44.41 31.58 44.41 31.68 44.49 32.17 44.58 32.22 44.67 32.27 45.3 32.04 45.58 32.1 46.58 32.36 46.65 33.53 46.81 34.31 46.97 35.09 47.56 35.87 47.81 36.73 48.06 37.59 47.93 38.34 48.57 38.93 49.21 39.52 50.41 39.79 51.14 40.44 51.6448 41.0119 52.0504 41.6642 52.34 42.37 52.4356 42.7143 52.5629 43.0491 52.72 43.37 53.01 43.73 53.51 43.62 53.9 43.86 54.29 44.1 54.2 44.21 54.38 44.77 54.5088 45.1708 54.7607 45.5208 55.1 45.77 55.9136 46.3948 56.6342 47.1322 57.24 47.96 57.466 48.6148 57.5412 49.3121 57.46 50 57.53 51 58.09 51.93 58.04 52.93 57.877 54.0996 57.6297 55.256 57.3 56.39 57.2035 57.36 56.8008 58.2742 56.15 59 54.8758 60.4792 53.9346 62.2151 53.39 64.09 53.13 64.82 53.39 66.17 52.76 66.74 52.13 67.31 50.93 66.91 50.19 67.24 49.45 67.57 49.07 68.46 48.19 68.58 47.31 68.7 46.61 67.9 46.19 67.17 45.34 67.87 44.69 68.79 43.54 68.4 42.5442 68.1663 41.5626 67.8758 40.6 67.53 39.7154 67.1383 39.1491 66.2574 39.16 65.29 39.0643 64.8097 38.859 64.3579 38.56 63.97 38.1 63.23 38.11 63.31 37.25 63.53 37.4698 62.8033 37.2335 62.0157 36.65 61.53 36.35 62.16 36.28 62.89 35.42 62.86 35.42 62.54 35.81 62.65 35.86 62.4 35.8753 62.0135 35.9221 61.6289 36 61.25 36.14 60.86 37 59.6 36.28 59.42 36.02 59.35 35.18 60.52 34.93 60.71 34.3416 61.2034 33.8025 61.7526 33.32 62.35 32.9447 61.532 32.5033 60.7461 32 60 31.48 59.42 31.18 58.58 30.48 58.23 30.0809 58.1034 29.6678 58.0262 29.25 58 28.63 57.86 28.14 57.57 27.56 57.39 26.5164 57.1582 25.4323 57.1823 24.4 57.46 23.416 57.8082 22.4147 58.1053 21.4 58.35 20.359 58.4208 19.3409 58.6889 18.4 59.14 17.9656 59.296 17.5651 59.5336 17.22 59.84 17 60.07 16.91 60.53 16.65 60.72 16 61.22 14.33 60.89 13.56 60.86 12.626 60.7549 11.6835 60.9624 10.88 61.45 10.2319 61.9129 9.54232 62.3146 8.82 62.65 7.88 63 4.18 62 4.8 60.69 4.91 60.47 5.33 60.3 5.48 60.04 5.65193 59.5149 5.71322 58.9599 5.66 58.41 5.66 57.35 5.04 56.66 4.76 55.68 4.65502 54.7652 4.44359 53.8658 4.13 53 3.61 52 3.28 51 2.82 50Z"/><path d="M31 15.17C31.82 16 32.5 17.17 33.59 16.17 33.887 15.8022 34.2222 15.467 34.59 15.17 34.77 15.06 35.05 15.08 35.23 14.96 35.41 14.84 35.58 14.41 35.9 14.29 36.79 13.96 38.67 15.09 39.57 15.37 40.99 15.8 42.38 16.29 43.77 16.79 44.77 17.15 46.37 17.66 47.03 18.58 47.49 19.21 47.19 19.38 47.9 19.77 48.37 20.03 49.35 20.11 49.7 20.55 50.05 20.99 49.99 21.01 49.7 21.27 49.41 21.53 48.82 21.27 49.13 22.07 49.28 22.48 49.75 22.71 50.06 23 50.37 23.29 50.66 24 51.06 24.37 51.46 24.74 51.6 24.55 51.85 24.72 52.1 24.89 52.44 25.33 52.71 25.55 52.98 25.77 53.71 26.3 53.71 26.55 53.71 27.01 53.36 26.62 53.13 26.55 52.1003 26.4448 51.0905 26.1957 50.13 25.81 49.13 25.24 48.73 24.17 47.95 23.44 47.4969 23.1085 46.9843 22.8675 46.44 22.73 45.75 22.46 45.5 22.25 44.88 22.73 44.4578 23.0277 44.0629 23.3624 43.7 23.73 43.64 23.91 44.01 24.26 43.94 24.44 43.81 24.8 43.01 24.8 42.77 24.81 41.801 24.9955 40.8027 24.6926 40.1 24 39.7827 23.5964 39.3389 23.3111 38.84 23.19 38.13 23.09 37.49 23.72 36.84 23.56 36.19 23.4 36.47 22.83 36.93 22.49 37.58 22.02 37.81 22.28 37.52 21.3 37.1939 19.9792 36.1745 18.9406 34.86 18.59 34.06 18.33 33.2 18.14 32.42 17.82 32.08 17.68 30.76 16.69 30.42 16.77 29.95 16.9 30.05 17.77 29.42 17.3 29.42 17.3 29.3 16.66 29.3 16.66 29.1127 16.3796 28.8794 16.1328 28.61 15.93 29.13 15.76 29.69 15.67 30.17 15.53 30.65 15.39 30.89 15.54 31 15.17Z"/><path d="M85.37 72.73 86.57 72.54C86.66 73.32 86.73 73.54 86.32 74.19 85.91 74.84 85.41 75.19 85.08 75.78 84.82 75.92 84.73 76.1 84.81 76.33L84.87 76.7C84.65 77.01 84.65 76.95 84.11 77.13 83.5623 77.2547 83.0788 77.5746 82.75 78.03 82.04 79.11 81.99 80.27 80.92 81.19 79.62 82.3 78.62 81.35 77.21 81.08 76.67 80.98 76.3 81.08 76.33 80.39 76.36 79.7 77.03 79.17 77.33 78.8 78.3169 77.9157 79.4044 77.1504 80.57 76.52 81.196 76.1526 81.7767 75.713 82.3 75.21 82.6338 74.6996 82.9409 74.1723 83.22 73.63 83.4069 73.4351 83.5806 73.228 83.74 73.01 83.87 72.79 83.89 72.31 84.06 72.14 84.65 71.61 85 72.29 85.37 72.73Z"/><path d="M87.85 65.81 88.14 65.89C88.35 66.05 88.5 66.02 88.6 65.8 88.8 65.8 88.67 65.56 88.84 65.65 89.01 65.74 89.12 66.38 89.27 66.6 90.18 67.93 91.37 67.13 92.5 66.83 92.6589 67.4916 92.4705 68.1885 92 68.68 91.7669 68.8976 91.4957 69.0705 91.2 69.19 90.51 69.52 90.79 69.31 90.63 69.88 90.4582 70.6613 90.1168 71.3952 89.63 72.03 89.41 72.31 89.19 72.78 88.84 72.94 88.49 73.1 87.84 73 87.84 72.55 87.84 71.85 88.61 71.55 88.14 70.81 87.82 70.26 86.25 70.06 86.53 69.36 86.62 69.13 87 69.11 87.17 68.94 87.3778 68.6839 87.5126 68.3764 87.56 68.05 87.75 67.33 87.51 66.33 87.85 65.81Z"/><path d="M46 72C46.71 72 47.2 72.43 47.86 72.55 48.52 72.67 49.32 72.15 50.09 72.16 51.42 72.16 50.61 74.45 50.09 75.16 49.23 76.43 47.96 76.95 47.04 75.49 46.7862 74.9041 46.5691 74.3029 46.39 73.69 46.11 73.1 45.79 72.71 46 72Z"/><path d="M31 15.14C30.47 14.58 29 15.22 28.41 14.78 28.12 14.58 28.15 14.23 27.79 14.04 27.43 13.85 26.88 14.04 26.54 13.56 27.96 13.35 28.42 12.35 29.96 12.89 31.5 13.43 31 13.93 31 15.14Z"/><path d="M51.12 19.75C52.1225 19.8077 53.1283 19.7574 54.12 19.6 54.508 19.4873 54.8552 19.2651 55.12 18.96 55.55 18.54 55.55 18.62 55.6 17.9 57 18.25 56.03 19.39 55.21 19.9 53.81 20.62 52.39 20.92 51.12 19.75Z"/><path d="M87.88 65.78C87.08 65.78 87.05 64.85 86.54 64.36 86.31 64.15 85.29 63.21 85.44 62.86 85.73 62.18 86.84 63.19 87 63.47 87.42 64.18 87.29 65.24 87.88 65.78Z"/><path d="M72.36 40C74.2414 41.0692 75.9312 42.4448 77.36 44.07 75.91 43.58 72.41 41.86 72.36 40Z"/><path d="M60 19.82 61.2 21.19C61.16 21.44 59.63 20.47 60 19.82Z"/><path d="M27.29 28.11C26.83 28.44 26.36 28.59 25.95 28.03 26.3819 27.8305 26.8849 27.8606 27.29 28.11Z"/><path d="M31.3 21.47C31.2412 20.8709 31.3742 20.2686 31.68 19.75 32.14 20.44 31.75 20.81 31.3 21.47Z"/><path d="M35.93 64C35.5929 64.2393 35.1616 64.3025 34.77 64.17 35.35 63.61 35.46 63.6 35.93 64Z"/><path d="M57.06 17.54C57.41 17.76 57.47 17.99 57.2 18.33 56.9485 18.1803 56.8659 17.855 57.0156 17.6035 57.0288 17.5813 57.0437 17.5601 57.06 17.54Z"/></g></svg>

