<svg width="96" height="96" xmlns="http://www.w3.org/2000/svg" xmlns:xlink="http://www.w3.org/1999/xlink" xml:space="preserve" overflow="hidden"><g><path d="M74.47 27.35C74.39 27.05 74.32 26.75 74.23 26.46 74 25.75 73.9 25.64 73.13 25.65 72.5451 25.6506 71.9787 25.4453 71.53 25.07 71.2598 24.8663 71.0026 24.6458 70.76 24.41 70.281 23.9673 69.7424 23.5936 69.16 23.3 68.7838 23.0576 68.3242 22.9816 67.89 23.09 67.2152 23.2341 66.5116 23.1497 65.89 22.85 65.3909 22.6398 64.8315 22.622 64.32 22.8L63.53 23.1C63.5156 23.0207 63.5156 22.9393 63.53 22.86 63.6306 22.5673 63.6089 22.2465 63.47 21.97 63.3039 21.7068 63.0111 21.5509 62.7 21.56 62.61 21.56 62.54 21.43 62.45 21.39 61.88 21.16 61.31 20.92 60.73 20.72 60.191 20.4291 59.5184 20.6251 59.22 21.16 59.0912 21.3106 58.9543 21.4541 58.81 21.59 58.754 21.3699 58.7863 21.1366 58.9 20.94 58.98 20.73 59.02 20.5 59.08 20.28 58.7557 20.0818 58.3798 19.9844 58 20 57.77 20 57.52 20.05 57.35 19.83 56.9099 20.0148 56.4373 20.11 55.96 20.11 56.1167 19.7674 56.3998 19.4987 56.75 19.36 56.81 19.36 56.92 19.42 57.01 19.45 56.8942 19.232 56.9349 18.9639 57.11 18.79 57.3525 18.5587 57.4518 18.2149 57.37 17.89 56.6952 17.549 56.2615 16.8657 56.24 16.11 56.1862 15.5298 55.8692 15.0064 55.38 14.69 55.096 14.503 54.8283 14.2923 54.58 14.06 54.247 13.7696 53.8595 13.5487 53.44 13.41 52.6235 13.0639 51.7282 12.9464 50.85 13.07 50.0668 13.2006 49.267 12.9647 48.68 12.43 48.3962 12.1977 48.0954 11.9871 47.78 11.8 47.6401 11.2372 47.2797 10.7543 46.78 10.46 46.2065 10.15 45.5842 9.9403 44.94 9.84 44.94 9.52 44.94 9.23 44.88 8.84 44.5082 8.67568 44.1236 8.5419 43.73 8.44 43.2982 8.35936 42.9696 8.00642 42.92 7.57 42.2479 7.4297 41.548 7.58645 41 8 40.4261 8.42173 39.6364 8.38848 39.1 7.92 38.837 7.70642 38.4889 7.62867 38.16 7.71 37.6621 7.81496 37.1479 7.81496 36.65 7.71 36.578 7.63059 36.5205 7.53922 36.48 7.44 36.3712 6.97883 35.9537 6.65734 35.48 6.67 34.5816 6.6243 33.6982 6.91285 33 7.48 33 7.48 33 7.54 32.94 7.65 33.07 7.89 33.23 8.19 33.37 8.49 33.4954 8.70292 33.4954 8.96708 33.37 9.18 33.2308 9.4185 32.9246 9.49902 32.6861 9.35983 32.6807 9.35666 32.6753 9.35338 32.67 9.35L32.24 8.56 32.74 7.63C32.63 7.26 32.53 6.95 32.43 6.63 32.6293 6.49583 32.8197 6.34885 33 6.19 33.0861 6.09534 33.1231 5.96588 33.1 5.84 33.0496 5.68798 32.8855 5.60562 32.7334 5.65604 32.7149 5.6622 32.697 5.67023 32.68 5.68 32.48 5.79 32.3 5.96 32.1 6.08 31.6227 6.3987 31.1211 6.67956 30.6 6.92 30.1496 7.05782 29.6878 7.15488 29.22 7.21 28.7663 7.28401 28.4091 7.63714 28.33 8.09 28.28 8.36 28.24 8.63 28.19 8.91 27.9919 9.03866 27.8016 9.1789 27.62 9.33 27.42 9.52 27.27 9.75 27.06 9.92 26.85 10.09 27.06 10.43 26.71 10.48 26.53 10.31 26.32 10.16 26.14 9.99 26.0653 10.5288 25.9138 11.0542 25.69 11.55 26.0736 11.9682 26.2906 12.5126 26.3 13.08 26.345 13.5523 26.345 14.0277 26.3 14.5 26.2182 14.8439 26.2835 15.2062 26.48 15.5 26.2755 15.8725 26.045 16.2301 25.79 16.57 25.62 16.77 25.32 16.84 25.11 17.01 25.0014 17.1316 24.9196 17.2747 24.87 17.43 24.46 18.37 24.47 18.37 23.52 18.76 23.4338 18.8151 23.3534 18.8788 23.28 18.95 23.2512 19.3606 23.1092 19.7551 22.87 20.09 22.4469 20.626 22.2756 21.3185 22.4 21.99 22.4253 22.0782 22.4253 22.1718 22.4 22.26 22.64 22.84 23.11 22.52 23.4 22.68 23.5218 23.0661 23.3544 23.4844 23 23.68 22.7 23.91 22.41 24.14 22.13 24.38 21.8408 24.5898 21.7367 24.9727 21.88 25.3 21.95 25.49 21.96 25.74 22.09 25.87 22.38 26.16 22.09 26.45 22.14 26.76 22.26 26.84 22.4 26.94 22.55 27.02 22.8998 27.1671 23.2037 27.4054 23.43 27.71 23.85 28.4 24.3 29.08 24.68 29.8 25.06 30.52 25.36 31.3 25.74 32.02 26.23 32.94 26.79 33.84 27.3 34.76 27.4376 34.95 27.5174 35.1757 27.53 35.41 27.4449 35.8843 27.6251 36.3673 28 36.67 28.4472 37.1891 28.9905 37.617 29.6 37.93 30.22 38.21 30.82 38.53 31.42 38.86 31.9467 39.0939 32.4381 39.4002 32.88 39.77 33.1758 40.0909 33.4897 40.3947 33.82 40.68 34.0689 40.866 34.2255 41.1502 34.25 41.46 34.3 42.24 34.4 43.01 34.43 43.79 34.5029 44.7725 34.3595 45.7589 34.01 46.68 34.01 46.74 33.94 46.82 34.01 46.87 34.21 47.38 33.93 47.87 34.01 48.38 34.0821 49.1248 34.0212 49.8765 33.83 50.6 33.6555 51.5671 33.3979 52.5173 33.06 53.44 32.9781 53.6627 32.9781 53.9073 33.06 54.13 33.2386 54.4394 33.2386 54.8206 33.06 55.13 32.7494 55.663 32.6803 56.303 32.87 56.89 33.0096 57.5898 33.0096 58.3102 32.87 59.01 32.71 59.74 32.38 60.41 32.28 61.15 32.2449 61.2852 32.1946 61.4161 32.13 61.54 31.92 62.04 31.73 62.54 31.51 63.04 31.29 63.54 31.13 64.2 30.51 64.54 30.65 65.3 30.77 66.04 30.93 66.77 30.9983 67.0716 30.9443 67.388 30.78 67.65 30.2729 68.4521 30.1518 69.4391 30.45 70.34 29.71 70.85 30.03 71.68 29.78 72.34 30.3 72.44 30.51 72.34 30.51 71.91 30.51 71.68 30.37 71.47 30.51 71.21 30.6118 70.9527 30.6823 70.6841 30.72 70.41L31.02 70.21 31.46 69.95 31.82 70.95C31.5072 71.5959 31.3012 72.2882 31.21 73 31.1489 73.7323 31.0114 74.4562 30.8 75.16 30.7083 75.6398 30.5064 76.0917 30.21 76.48L29.68 75.92 28.54 76.92C28.88 77.09 29.1 77.34 29.49 77.31 29.88 77.28 29.97 77.53 29.87 77.85 29.77 78.17 29.52 78.4 29.61 78.85L30.48 78.85 30.48 79.3 29.64 79.15C29.64 79.48 29.64 79.75 29.64 80.01 29.64 80.27 29.64 80.29 29.42 80.29 29.27 80.02 29.13 79.75 28.98 79.49 28.98 79.49 28.87 79.49 28.82 79.42L28.39 79.96 28.86 80.47 28.75 81.41C28.95 81.49 29.11 81.59 28.94 81.85L28.94 81.85C29.09 81.95 29.25 82.07 29.37 81.85 29.49 81.63 29.45 81.52 29.52 81.37 29.6681 81.2319 29.8288 81.1081 30 81L29.6 82.33C29.7525 82.6461 29.8569 82.9831 29.91 83.33 29.91 83.72 30.24 83.91 30.3 84.25 30.41 84.78 30.58 84.91 31.18 85.13 31.18 85.51 30.67 85.38 30.55 85.72 30.62 85.96 30.62 86.35 30.81 86.5 31 86.65 31.26 87.17 31.61 87.39 31.87 86.68 32.48 86.52 33.25 86.39 33.14 86.62 33.11 86.77 33.03 86.82 32.7986 86.9451 32.5579 87.0521 32.31 87.14 32.13 87.22 31.91 87.22 31.84 87.45 32.16 87.61 32.47 87.78 32.84 87.92 33.21 88.06 33.44 87.92 33.46 87.53 33.4733 87.0917 33.5825 86.6616 33.78 86.27 34.2147 86.0333 34.7055 85.9192 35.2 85.94 35.14 85.66 35.2 85.49 35.54 85.48 35.7652 85.4878 35.9893 85.5145 36.21 85.56 36.1765 85.3616 36.1052 85.1715 36 85 35.7453 84.594 35.5847 84.1362 35.53 83.66 35.3757 83.1456 35.6228 82.596 36.11 82.37 36.2571 82.2815 36.4109 82.2046 36.57 82.14 36.9425 82.0295 37.1907 81.678 37.17 81.29 37.232 80.7021 37.5698 80.1787 38.08 79.88 38.22 79.78 38.38 79.71 38.53 79.62 38.9669 79.3463 39.2654 78.8985 39.35 78.39 39.4282 78.1483 39.2956 77.8889 39.0539 77.8108 39.0202 77.7999 38.9853 77.7929 38.95 77.79 38.4353 77.7625 37.956 77.5193 37.63 77.12 37.22 76.72 37.21 76.48 37.46 75.93 37.6263 75.4635 37.9935 75.0964 38.46 74.93L39.4 74.64C39.46 74.52 39.49 74.36 39.58 74.28 39.8803 74.0429 40.0002 73.6433 39.88 73.28 39.8159 73.0087 39.8995 72.7237 40.1 72.53 40.24 72.37 40.41 72.25 40.55 72.11 40.69 71.97 40.55 71.99 40.55 71.93L40.24 71.59 40.6 71.11C40.4226 70.9382 40.274 70.739 40.16 70.52 40.0735 70.1561 40.0265 69.784 40.02 69.41 40.0629 69.2143 40.1408 69.028 40.25 68.86L41.45 69.3C42.1019 69.5176 42.8209 69.3427 43.3 68.85 43.0973 68.5257 43.0973 68.1143 43.3 67.79 43.4786 67.4806 43.4786 67.0994 43.3 66.79 43.3 66.67 43.3 66.49 43.3 66.26 43.7964 66.4803 44.351 66.5329 44.88 66.41 45.8668 66.3275 46.8384 66.1157 47.77 65.78 48.0586 65.678 48.3214 65.5142 48.54 65.3 48.868 64.9088 49.1624 64.4907 49.42 64.05 49.69 63.61 49.65 63.4 49.22 63.05 48.95 62.8 48.73 62.55 48.92 62.16 49.11 61.77 48.92 61.57 48.63 61.39 48.34 61.21 48.08 61.1 47.84 60.92 47.7135 60.8137 47.6314 60.6639 47.61 60.5 47.61 60.38 47.76 60.25 47.87 60.09 48.1537 60.4227 48.5632 60.622 49 60.64 49.2 60.6734 49.3908 60.7483 49.56 60.86 49.8939 61.0375 50.2757 61.1041 50.65 61.05 50.8171 61.0059 50.9929 61.0059 51.16 61.05 51.8 61.2523 52.4967 61.0078 52.87 60.45 53.3 59.97 53.65 59.45 54.12 58.97 54.2166 58.8732 54.2856 58.7524 54.32 58.62 54.46 58.17 54.79 57.8 54.78 57.28 54.7983 57.039 54.9183 56.8172 55.11 56.67 55.4148 56.3971 55.6482 56.0538 55.79 55.67 56 55.23 56.28 55.23 56.79 55.67 56.91 55.41 57.03 55.18 57.14 54.94 57.3609 54.3588 57.7339 53.8477 58.22 53.46 58.6876 53.1576 58.9786 52.6464 59 52.09 59 51.79 58.95 51.48 58.95 51.17 58.95 49.89 58.82 49.69 60 48.71 60.6074 48.1105 61.3424 47.6559 62.15 47.38 62.5524 47.2929 62.9269 47.1073 63.24 46.84 63.6176 46.498 64.1236 46.3342 64.63 46.39 65.2451 46.3836 65.8593 46.3435 66.47 46.27 66.56 45.66 67.12 45.53 67.47 45.27 67.5653 44.8438 67.7201 44.433 67.93 44.05 68.28 43.58 68.51 43.05 68.84 42.58 69.0188 42.3301 69.1069 42.0268 69.09 41.72 69.0593 41.2738 69.179 40.8302 69.43 40.46 69.5494 40.26 69.6307 40.0396 69.67 39.81 69.75 39.48 69.76 39.13 69.85 38.81 69.9683 38.2817 69.992 37.7366 69.92 37.2 69.7725 36.258 69.8974 35.2934 70.28 34.42 70.94 34.36 70.95 34.42 71.22 33.94 71.3731 33.7168 71.5038 33.479 71.61 33.23 71.8462 32.7271 72.1872 32.2804 72.61 31.92 73 31.54 73.38 31.14 73.75 30.74 74.5872 29.8243 74.8627 28.5269 74.47 27.35ZM31.47 86.14C31.97 85.84 31.97 85.84 32.71 86.02 32.3261 86.2006 31.8916 86.243 31.48 86.14Z"/><path d="M35.19 85.89C35.4016 85.9831 35.6187 86.0633 35.84 86.13 36.1242 86.1507 36.3456 86.3851 36.35 86.67 36.3498 86.8 36.3843 86.9278 36.45 87.04 37.2539 88.154 38.4208 88.9531 39.75 89.3 39.75 89.3 39.75 89.3 39.75 89.37 39.1732 89.6158 38.5446 89.7154 37.92 89.66L37.67 90.06 36.88 90 36.74 89.5C36.34 89.26 36.23 89.94 35.87 89.75L35.19 90.22C34.73 90.08 34.85 89.79 34.88 89.45L33.88 89.53 33.07 88.95C33.48 88.71 33.84 88.95 34.19 88.89L35.19 88.78C35.19 88.52 34.93 88.53 34.8 88.43 34.36 88.1 34.36 87.96 34.85 87.62 34.97 87.54 35.07 87.43 35.31 87.22 35.0269 87.2365 34.7431 87.2365 34.46 87.22 34.3331 87.2146 34.2155 87.1521 34.14 87.05 34.13 86.9235 34.1694 86.798 34.25 86.7 34.3674 86.5827 34.4945 86.4757 34.63 86.38L35.14 85.9Z"/><path d="M46.56 85.19C46.68 84.73 47.16 84.56 47.26 84.11L47.79 84.23C47.94 84.23 48.1 84.23 48.27 84.23 48.27 84.35 48.27 84.5 48.27 84.54 47.7542 84.8788 47.1706 85.1007 46.56 85.19Z"/><path d="M31.83 87.35C31.83 87.6 32.04 87.88 31.69 88.14 31.39 87.97 30.91 88.14 30.75 87.6 30.97 87.19 31.41 87.6 31.67 87.36L31.85 87.36Z"/><path d="M46.43 84.42C46.27 84.95 45.79 85.06 45.27 85.29 45.43 85.03 45.56 84.85 45.66 84.66 45.88 84.25 45.88 84.24 46.43 84.42Z"/><path d="M41.83 71.21C41.83 71.35 41.83 71.45 41.76 71.54 41.69 71.63 41.44 71.78 41.35 71.68 41.2777 71.5808 41.236 71.4626 41.23 71.34 41.2372 71.2739 41.2694 71.2131 41.32 71.17 41.41 71.08 41.52 70.95 41.61 70.96 41.7 70.97 41.77 71.13 41.83 71.21Z"/><path d="M34.05 88 33.88 88.43C33.67 88.37 33.71 88.23 33.75 88.12 33.79 88.01 33.87 87.99 33.93 87.92Z"/><path d="M33 88.47 32.41 88.33C32.41 88.03 32.6 88.11 32.73 88.2 32.8282 88.2789 32.9127 88.3735 32.98 88.48Z"/><path d="M36.19 89.92C36.26 90.09 36.33 90.17 36.33 90.25 36.33 90.33 36.2 90.36 36.12 90.37 36.04 90.38 36 90.3 36 90.28 36.054 90.1553 36.1175 90.035 36.19 89.92Z"/></g></svg>