<svg width="96" height="96" viewBox="0 0 96 96" xmlns="http://www.w3.org/2000/svg" xmlns:xlink="http://www.w3.org/1999/xlink"  ><g><path d="M92.47 21.87C92.3575 21.6251 92.1093 21.4715 91.84 21.48L91.67 21.48C90.9728 21.4792 90.2947 21.7076 89.74 22.13 89.6154 22.2473 89.4645 22.333 89.3 22.38 89.03 22.44 88.76 22.57 88.48 22.64 87.6505 22.979 86.7412 23.0727 85.86 22.91 85.5297 22.7481 85.1304 22.8653 84.94 23.18 84.8727 23.3167 84.7135 23.3812 84.57 23.33 84.4331 23.2989 84.2895 23.3321 84.18 23.42 84.012 23.5304 83.82 23.599 83.62 23.62 82.9267 23.7097 82.2866 24.0386 81.81 24.55 81.73 24.62 81.62 24.75 81.56 24.74 81.13 24.65 80.96 25.03 80.67 25.19L80.67 25.19 80.45 25.94 79.97 26.07C79.74 26.22 79.97 26.42 79.79 26.57 79.61 26.72 79.79 26.94 79.79 27.12 79.11 27.04 78.79 27.18 78.2 27.85 78.3157 27.9055 78.4417 27.9361 78.57 27.94 78.64 27.94 78.57 28.05 78.47 28.03 78.5518 28.2705 78.423 28.5318 78.1825 28.6136 78.1621 28.6205 78.1412 28.626 78.12 28.63 77.8082 28.6975 77.5394 28.8936 77.38 29.17 77.3 29.31 77.1 29.37 76.97 29.47 76.84 29.57 76.91 29.57 76.88 29.61L77.12 30.08 76.67 30.81C76.5168 30.7995 76.3632 30.7995 76.21 30.81 75.962 30.8258 75.7737 31.0396 75.7894 31.2876 75.791 31.312 75.7945 31.3362 75.8 31.36 75.816 31.6301 76.048 31.8361 76.3182 31.8201 76.3188 31.8201 76.3194 31.82 76.32 31.82 76.49 31.82 76.67 31.7 76.83 31.73 77.36 31.8 77.67 32.29 78.15 32.47 78.15 32.47 78.15 32.47 78.15 32.47L78 33 79 33.34C79.0822 33.3592 79.1678 33.3592 79.25 33.34 79.868 33.225 80.502 33.225 81.12 33.34 81.23 33.34 81.36 33.34 81.37 33.18 81.14 33.03 80.89 32.88 80.66 32.72 80.1551 32.3703 79.7791 31.8644 79.59 31.28 79.331 30.6347 79.4937 29.8966 80 29.42 80.1472 29.2282 80.2777 29.0241 80.39 28.81L80 28.58C80.2598 28.596 80.5202 28.596 80.78 28.58 80.94 28.58 81.13 28.47 81.07 28.24 81.01 28.01 81.07 28.03 81.24 28.03 81.54 28.03 81.6 27.79 81.75 27.62 81.9 27.45 81.84 27.15 82.17 27.09 82.3765 27.0584 82.5491 26.9165 82.62 26.72 82.764 26.3456 83.102 26.0805 83.5 26.03 83.8245 26.0405 84.1254 25.8608 84.27 25.57 84.37 25.32 84.54 25.25 84.73 25.13 85.5551 24.5947 86.4696 24.2119 87.43 24 88.74 23.74 89.99 23.29 91.28 23 91.6168 22.9106 91.9261 22.7388 92.18 22.5 92.39 22.36 92.57 22.16 92.47 21.87Z"/><path d="M20.59 56.12C21.13 55.92 21.13 55.92 21.48 56.49L21.15 57.27C21.69 57.57 22.2 57.27 22.69 57.27 22.59 57.99 22.59 57.99 23.21 58.42 23.1853 58.5883 23.152 58.7552 23.11 58.92 23.0564 59.0869 22.993 59.2506 22.92 59.41L21.75 59.51C21.83 59.7 21.92 59.87 21.99 60.05 22.16 60.3409 22.062 60.7145 21.7711 60.8844 21.7482 60.8978 21.7245 60.9097 21.7 60.92 21.57 61 21.43 61.04 21.31 61.12 21.2237 61.194 21.1465 61.2779 21.08 61.37 21.45 61.45 21.76 61.49 22.08 61.58 22.4568 61.7581 22.8798 61.814 23.29 61.74 23.21 62.09 22.95 62.16 22.64 62.15 22.4102 62.0942 22.1674 62.1457 21.98 62.29 21.6475 62.5728 21.3667 62.9111 21.15 63.29L21.15 63.29C21.5655 63.175 22.0045 63.175 22.42 63.29 22.578 62.8941 23.0103 62.6823 23.42 62.8 23.618 62.8399 23.822 62.8399 24.02 62.8 24.6712 62.6664 25.3354 62.606 26 62.62 26.452 62.6508 26.89 62.4561 27.17 62.1L26.53 61.84C26.622 61.6863 26.7292 61.5422 26.85 61.41 26.99 61.27 27.18 61.18 27.31 61.03 27.5255 60.863 27.6067 60.5749 27.51 60.32 27.3971 60.0774 27.1574 59.9189 26.89 59.91 26.7775 59.8906 26.6625 59.8906 26.55 59.91 26.42 59.91 26.3 60.06 26.12 59.91 26.2082 59.6472 26.1675 59.3582 26.01 59.13 25.9447 59.0018 25.8911 58.8679 25.85 58.73 25.7043 58.2944 25.3913 57.9346 24.98 57.73 24.8162 57.6201 24.6849 57.4681 24.6 57.29 24.503 57.1124 24.4258 56.9246 24.37 56.73 24.2297 56.2452 23.8032 55.8985 23.3 55.86 23.17 55.86 23 55.94 22.91 55.75 23.4196 55.1277 23.8218 54.4247 24.1 53.67 23.5654 53.528 23.0079 53.494 22.46 53.57 22.33 53.57 22.19 53.57 22.08 53.57 22.0149 53.3198 22.1203 53.0563 22.34 52.92 22.53 52.77 22.79 52.66 22.85 52.32 22.25 52.17 21.7 52.47 21.15 52.32 21.04 52.55 20.97 52.73 20.88 52.91 20.79 53.09 20.76 53.19 20.65 53.25 20.439 53.3323 20.3347 53.57 20.417 53.781 20.4236 53.7978 20.4313 53.8142 20.44 53.83 20.5206 54.0184 20.5206 54.2316 20.44 54.42 20.44 54.56 20.37 54.7 20.33 54.84 20.29 54.98 20.23 55.07 20.16 55.23L20.68 55.11C20.67 55.48 20.63 55.79 20.59 56.12Z"/><path d="M37 16.85 37.48 16.58 37.68 17.32C37.6 17.48 37.34 17.7 37.41 17.82 37.48 17.94 37.83 18.03 37.99 18.15 38.1407 18.2823 38.2842 18.4225 38.42 18.57 38.8335 18.9361 39.4655 18.8977 39.8316 18.4842 39.9013 18.4055 39.9581 18.3164 40 18.22 40 18.09 40.09 17.96 40.13 17.84 40.41 17.84 40.64 17.98 40.8 17.71 40.8 17.71 40.89 17.71 40.94 17.71L40.94 18.18C41.43 18.38 41.69 17.94 42.07 17.8L42.14 18.56C41.8002 18.5826 41.4644 18.6464 41.14 18.75 40.5811 19.0607 39.9492 19.2161 39.31 19.2 39.31 19.46 39.31 19.65 39.56 19.75 40.2578 19.6358 40.963 19.5723 41.67 19.56L42.14 19.56 42.14 19.65 41.69 19.53C41.59 19.62 41.5 19.77 41.38 19.79 41.1327 19.843 40.925 20.0099 40.82 20.24L40.23 20.24C40.05 20.24 39.85 20.03 39.67 20.36 39.75 20.47 39.81 20.66 39.94 20.73 40.4249 21.0727 41.0215 21.2192 41.61 21.14 41.53 21.34 41.37 21.44 41.42 21.61 41.65 21.83 41.92 22.12 42.33 21.98 42.502 21.6806 42.646 21.3659 42.76 21.04 42.8691 20.5953 43.2092 20.2438 43.65 20.12 43.83 20.01 43.73 19.68 43.78 19.49 43.83 19.3 43.85 19.21 43.92 19.19 44.39 19.05 44.34 18.61 44.44 18.29 44.69 18.15 44.91 18.01 45.14 17.91 45.37 17.81 45.6 17.83 45.82 17.75 46.04 17.67 46.33 17.81 46.58 17.53L44.18 16.63C44.18 16.26 44.18 15.92 43.72 15.86 43.51 15.86 43.48 16.2 43.17 16.07L43.22 15.41C43.05 15.32 42.85 15.1 42.71 15.14 42.32 15.24 42.07 14.9 41.71 14.9L41.25 15.47C41.3361 15.7254 41.4062 15.9859 41.46 16.25 41.46 16.52 41.78 16.72 41.73 17.04 41.2 16.9 41.04 16.48 40.83 16.1 40.62 15.72 40.49 15.5 40.11 15.47 39.67 15.89 39.67 15.89 39.54 16.37L38.35 15.82C38.55 15.39 39.04 15.74 39.28 15.39 38.588 15.2193 37.863 15.2365 37.18 15.44 37.01 15.5 37 15.58 36.95 15.65 36.52 16.12 36.52 16.13 36.89 16.65 36.85 16.82 36.93 16.82 37 16.85ZM40.91 20.3 41.49 20.21C41.25 20.47 41.07 20.31 40.89 20.3Z"/><path d="M19.74 60.75C19.864 60.5145 19.9516 60.2617 20 60 20 59.52 19.95 59 19.92 58.56L20.5 57.97C20.4371 57.5493 20.2239 57.1657 19.9 56.89L19.2 57C18.93 56.65 18.63 57 18.36 57 18.09 57 17.9 57.23 17.86 57.6 17.82 57.97 17.76 58.16 17.36 58.2 17.1901 58.2099 17.0199 58.2099 16.85 58.2 16.53 58.2 16.44 58.29 16.54 58.61 16.54 58.73 16.62 58.8 16.54 58.92 16.4695 59.0423 16.4157 59.1734 16.38 59.31L17.16 59.62C17 59.94 16.88 60.23 16.72 60.5 16.5012 60.7547 16.3286 61.0458 16.21 61.36L17.12 61.77C17.5397 61.6375 17.945 61.4633 18.33 61.25 18.7793 61.0299 19.2524 60.8622 19.74 60.75Z"/><path d="M43.89 15C43.89 15.1 43.89 15.25 43.89 15.36 44.2268 15.6059 44.6552 15.6901 45.06 15.59L46.44 15.45C46.55 15.45 46.68 15.45 46.69 15.64 46.49 15.72 46.28 15.83 46.07 15.9 45.86 15.97 45.59 15.82 45.31 15.96 45.7361 16.2567 46.2527 16.3947 46.77 16.35 47.3149 16.2706 47.8711 16.3397 48.38 16.55 48.7522 16.7319 49.1924 16.7053 49.54 16.48 49.6373 16.414 49.7524 16.3791 49.87 16.38 50.3269 16.4492 50.7784 16.2255 51 15.82 51.07 15.69 51.29 15.64 51.44 15.56 51.59 15.48 51.81 15.38 51.98 15.27 52.15 15.16 52.08 14.9 51.93 14.83 51.8297 14.7789 51.7215 14.7451 51.61 14.73 51.1176 14.7018 50.6288 14.6282 50.15 14.51 49.7333 14.3652 49.2724 14.4284 48.91 14.68 48.79 14.78 48.54 14.68 48.33 14.73 48.3412 14.6303 48.3412 14.5297 48.33 14.43 48.33 14.36 48.33 14.25 48.24 14.22 48.1672 14.1857 48.0828 14.1857 48.01 14.22 47.86 14.42 47.73 14.64 47.54 14.95 47.3618 14.85 47.1782 14.7598 46.99 14.68 46.8732 14.6068 46.7379 14.5686 46.6 14.57 46.3383 14.5852 46.0797 14.5072 45.87 14.35 45.65 14.21 45.42 14.1 45.18 13.96 45.18 14.4 44.72 14.48 44.57 14.77 44.2549 14.6278 43.8977 14.6099 43.57 14.72 43.69 14.86 43.84 14.92 43.89 15Z"/><path d="M47.8 20.18 48.04 20.75C48.5862 20.5713 49.0598 20.2204 49.39 19.75 48.8442 19.7111 48.3676 19.3663 48.16 18.86L47.78 18.86 47.38 18.86C47.2 18.2 47.05 18.08 46.49 18.16 46.3013 18.2098 46.1198 18.2838 45.95 18.38 46.12 18.75 46.12 18.75 46.71 18.94L46.41 19.19C46.4364 19.2474 46.47 19.3012 46.51 19.35L46.72 19.49C46.65 19.89 46.35 20.07 46.43 20.43Z"/><path d="M73.13 36.56C73.6617 36.583 74.1579 36.2939 74.4 35.82L73.9 35.53C73.7949 35.4799 73.6841 35.443 73.57 35.42 73.2206 35.3432 72.8643 35.5172 72.71 35.84 72.5654 36.0488 72.6174 36.3354 72.8263 36.4801 72.915 36.5415 73.0225 36.5698 73.13 36.56Z"/><path d="M83.76 34.92C83.8262 34.9775 83.9126 35.0063 84 35 84.1 35 84.25 34.94 84.28 34.87 84.3026 34.7643 84.2685 34.6544 84.19 34.58 83.85 34.33 83.48 34.11 83.12 33.88 83.0639 33.8689 83.0061 33.8689 82.95 33.88 82.9005 33.8972 82.8535 33.9208 82.81 33.95 82.6551 34.0833 82.6376 34.3169 82.7709 34.4718 82.8135 34.5213 82.8683 34.5586 82.93 34.58 83.2289 34.629 83.5126 34.7453 83.76 34.92Z"/><path d="M58.13 14.62C57.72 14.25 57.36 14.45 57.02 14.53 56.91 14.53 56.73 14.58 56.82 14.82 57.2657 14.8434 57.7116 14.7754 58.13 14.62Z"/><path d="M88.18 35.58C88.01 35.58 87.85 35.47 87.68 35.43 87.25 35.35 86.83 35.28 86.4 35.22L85.13 35 84.5 35.48 85.12 36.4C85.12 36.48 85.12 36.51 85.06 36.53 84.9166 36.7517 84.6821 36.8982 84.42 36.93 84.06 36.93 84.13 37.35 83.88 37.42 83.7463 37.4603 83.6037 37.4603 83.47 37.42 83.32 37.35 83.31 37.19 83.36 37.04 83.41 36.89 83.45 36.86 83.48 36.78 83.27 36.56 83.08 36.46 82.82 36.56 82.6808 36.6028 82.5439 36.6528 82.41 36.71 82.1226 36.8914 81.8135 37.0358 81.49 37.14 81.1173 37.1699 80.7427 37.1699 80.37 37.14 79.8714 37.0875 79.3915 37.3453 79.16 37.79L78.57 37.79C78.31 37.79 78.06 37.74 77.8 37.7 77.8 37.7 77.8 37.61 77.8 37.56L78.23 37.35C78.2209 37.2225 78.2042 37.0956 78.18 36.97 78.12 36.7 78 36.61 77.76 36.71 77.5668 36.7629 77.3864 36.8548 77.23 36.98 77.1277 37.1408 77.0502 37.3161 77 37.5 76.3681 37.2412 75.6489 37.3123 75.08 37.69 74.71 37.91 74.3 38.07 73.92 38.26L72.62 38.89 72.31 39.84C72.0449 39.9388 71.77 40.0092 71.49 40.05 71.1487 40.134 70.788 40.0763 70.49 39.89 70.2 39.66 69.95 39.4 69.67 39.13 69.93 38.45 70.59 38.43 71.16 38.27 71.16 38.16 71.16 38.06 71.16 38 70.8656 37.5621 70.3775 37.2938 69.85 37.28L68.57 37.28C69.39 37.95 68.72 38.59 68.63 39.21 69.37 40.03 69.37 40.3 68.63 41.13 68.1266 40.8568 67.5711 40.6932 67 40.65 66.6542 40.9853 66.2372 41.2383 65.78 41.39 65.4418 41.548 65.1258 41.7498 64.84 41.99 64.6929 42.1017 64.6618 42.3103 64.77 42.46 64.91 42.64 65.09 42.8 65.21 42.99 65.2783 43.1151 65.303 43.2594 65.28 43.4 65.28 43.55 65.1 43.6 64.93 43.59 64.76 43.58 64.53 43.59 64.33 43.59 64.0346 43.4891 63.7297 43.4187 63.42 43.38 62.98 43.38 62.84 43.03 62.52 42.92L62.02 42.76 61.64 43.21C61.8677 43.704 62.3908 43.9919 62.93 43.92L63 44.53C62.7459 44.7459 62.4008 44.8209 62.08 44.73 61.6838 44.666 61.3133 44.4928 61.01 44.23 60.828 44.1057 60.6188 44.0268 60.4 44 60.1 43.91 59.85 43.76 59.85 43.42 59.85 43.08 59.58 42.73 59.49 42.42 59.85 41.6 59.8 41.42 59.05 41.06 59.05 41.06 58.99 41.06 58.97 41.06 58.55 40.76 58.13 40.46 57.73 40.14 57.5513 40.03 57.4956 39.7959 57.6057 39.6172 57.6159 39.6006 57.6274 39.5848 57.64 39.57 57.747 39.5949 57.8487 39.6389 57.94 39.7 58.1633 39.9661 58.4838 40.1317 58.83 40.16 59.0275 40.2014 59.2214 40.2583 59.41 40.33 59.96 40.5 60.51 40.67 61.07 40.81 61.63 40.95 61.92 40.96 62.33 41.09 63.2271 41.3567 64.1948 41.2371 65 40.76 65.3166 40.5622 65.6029 40.3197 65.85 40.04 66.0142 39.8641 66.0502 39.6039 65.94 39.39 65.83 39.16 65.75 38.91 65.67 38.69 65.3544 38.4675 65.0198 38.2734 64.67 38.11 63.9135 37.8017 63.1843 37.4304 62.49 37 62.045 36.7284 61.5765 36.4974 61.09 36.31 60.4345 36.1384 59.7653 36.0247 59.09 35.97 58.99 35.97 58.87 36.03 58.76 36.06 58.65 36.09 58.55 36.06 58.54 36.06 58.34 35.63 57.83 35.87 57.54 35.6 57.54 35.6 57.44 35.54 57.41 35.49 57.399 35.444 57.399 35.396 57.41 35.35 57.6 35.35 57.81 35.46 58.02 35.22 57.7861 35.0958 57.5375 35.0018 57.28 34.94L56.79 35.22 54.97 35.06C54.8623 34.9469 54.7453 34.8432 54.62 34.75 54.3969 34.6378 54.1663 34.5409 53.93 34.46 55.4 34.55 55.4 34.55 55.93 34 55.5049 33.7122 55.0302 33.5054 54.53 33.39 54.09 33.23 54.1 33.22 53.83 33.58 53.77 33.65 53.74 33.73 53.68 33.79 53.62 33.85 53.43 33.79 53.37 33.65 53.3582 33.5839 53.3582 33.5161 53.37 33.45 53.49 33.3 53.6 33.21 53.61 33.12 53.62 33.03 53.46 32.89 53.32 32.88L52.95 32.88C52.7784 33.173 52.5915 33.4567 52.39 33.73 52.32 33.82 52.17 33.84 52.02 33.91 51.96 33.66 51.91 33.48 51.85 33.25 51.439 33.5453 51.0836 33.9109 50.8 34.33 50.71 34.45 50.59 34.54 50.44 34.33 50.472 34.1347 50.5257 33.9435 50.6 33.76 50.7298 33.5638 50.8771 33.3797 51.04 33.21L50.17 33.08C49.97 33.29 49.88 33.66 49.58 33.55 49.28 33.44 49.23 33.74 49.09 33.86L48.73 34.69C48.23 34.34 47.73 34.04 47.13 34.34L47.49 34.75C46.9193 34.7269 46.3637 34.9362 45.95 35.33 45.8915 35.2153 45.8247 35.105 45.75 35 45.6163 35.0575 45.4747 35.0946 45.33 35.11 45.18 35.11 45.17 34.92 45.1 34.79 45.03 34.66 44.81 34.54 44.51 34.79 44.7693 35.0729 44.7693 35.5071 44.51 35.79 44.39 35.87 44.27 35.94 44.15 35.79 44.03 35.64 43.71 35.68 43.49 35.65 43.192 35.587 42.8933 35.7535 42.79 36.04L43.07 36.13 43.37 36.19C43.28 36.86 42.84 36.99 42.37 37.02L42 36.67 41.59 36.83 41.27 36.31C41.2641 36.4908 41.2474 36.6712 41.22 36.85 41.22 37 41.11 37.15 41.02 37.38 41.3509 37.327 41.685 37.297 42.02 37.29 42.34 37.29 42.68 37.09 43.02 37.29 42.76 37.56 42.44 37.36 42.16 37.49L41.95 38.13C41.45 37.92 41.21 38.31 40.95 38.51 40.95 38.56 40.95 38.64 40.95 38.67 40.59 38.98 40.24 39.3 39.85 39.58 39.489 39.8333 39.2024 40.1786 39.02 40.58L39.22 40.81C38.5662 41.216 38.1575 41.9209 38.13 42.69 37.81 42.69 37.6 42.76 37.5 43.07 37.4289 43.2699 37.3419 43.4639 37.24 43.65 36.929 43.5569 36.593 43.6689 36.4 43.93 36.1831 44.1616 35.9794 44.4054 35.79 44.66 35.7392 44.7836 35.7154 44.9165 35.72 45.05 35.6 45.05 35.44 45.05 35.36 45.18 35.2385 45.3374 35.0125 45.3665 34.8551 45.2451 34.8307 45.2262 34.8088 45.2044 34.79 45.18L34.19 46.08C33.9 46.08 33.62 46 33.34 45.98 33.22 45.98 33.12 46.03 33.17 46.21L33.72 46.37C33.44 46.67 33.09 46.49 32.81 46.56 32.47 46.79 32.25 47.22 31.75 47.17 31.6662 47.1784 31.5917 47.2268 31.55 47.3 31.3287 47.532 31.2256 47.8525 31.27 48.17 31.32 48.33 31.27 48.6 31.34 48.65 31.73 48.86 31.16 48.9 31.28 49.1 31.3838 49.3762 31.4478 49.6658 31.47 49.96L32.08 50.18C31.9898 50.568 31.7799 50.9178 31.48 51.18 31.5616 51.2043 31.6453 51.2211 31.73 51.23 31.88 51.23 32.05 51.23 32.08 51.39 32.0955 51.5265 32.0638 51.6641 31.99 51.78 31.888 51.896 31.7702 51.997 31.64 52.08 31.64 52.19 31.64 52.26 31.72 52.3 32.1465 52.684 32.6621 52.9555 33.22 53.09 33.4175 53.1281 33.6217 53.1108 33.81 53.04 34.2627 52.9027 34.6724 52.6513 35 52.31 35.24 52.07 35.45 51.8 35.86 51.8 35.98 51.8 36.12 51.61 36.23 51.48 36.34 51.35 36.23 51.18 36.51 51.17 36.6869 51.336 36.8415 51.5243 36.97 51.73 37.14 52.14 37.08 52.64 37.52 52.94 37.59 52.99 37.57 53.16 37.61 53.27 37.6912 53.5752 37.7982 53.873 37.93 54.16 38.15 54.56 38.42 54.93 38.68 55.33 38.6524 55.433 38.6085 55.5309 38.55 55.62 38.4801 55.7066 38.3994 55.7838 38.31 55.85 38.6067 56.11 38.8074 56.4622 38.88 56.85 39.09 56.85 39.26 56.85 39.42 56.79 39.5551 56.764 39.6886 56.7306 39.82 56.69 39.9049 56.4546 40.0228 56.2324 40.17 56.03 40.366 55.8102 40.658 55.7017 40.95 55.74 41.1465 55.75 41.3435 55.75 41.54 55.74 41.9608 55.2068 42.1929 54.5492 42.2 53.87 42.2588 53.4462 42.3389 53.0257 42.44 52.61 42.4886 52.4748 42.5754 52.3567 42.69 52.27 42.8268 52.1649 42.9743 52.0744 43.13 52 43.3392 51.9141 43.5373 51.8033 43.72 51.67 43.87 51.53 43.92 51.28 44.06 51.11 44.2 50.94 44.4 50.8 44.4 50.48 44.1245 50.0927 43.7423 49.7939 43.3 49.62 42.95 49.53 42.85 49.23 42.78 48.9 42.63 48.2 43.07 47.62 43.1 46.96 43.1 46.89 43.2 46.83 43.25 46.77 43.394 46.6299 43.5277 46.4795 43.65 46.32 43.978 45.8386 44.4509 45.4744 45 45.28 45.7317 45.0136 46.366 44.5326 46.82 43.9 46.8286 43.8706 46.8286 43.8394 46.82 43.81 46.82 43.53 46.64 43.26 46.73 43.1 46.94 42.69 47.03 42.17 47.55 41.95 47.69 41.9 47.8 41.74 47.93 41.61L49.24 41.61C49.648 41.6001 50.0493 41.7152 50.39 41.94 50.5303 42.0334 50.6303 42.1762 50.67 42.34 50.6954 42.5726 50.6954 42.8074 50.67 43.04 50.3137 43.0894 49.9908 43.276 49.77 43.56 49.3591 44.0476 48.8849 44.478 48.36 44.84 48.1592 44.9975 47.9719 45.1714 47.8 45.36 47.7 45.46 47.59 45.63 47.49 45.63 47.09 45.63 47.09 46.01 46.88 46.18 46.67 46.35 46.75 46.75 46.82 47.05 47.0802 47.6683 47.1156 48.3583 46.92 49 46.8 49.27 46.92 49.46 47.26 49.61L48 50C48 50.43 48.37 50.21 48.54 50.37 48.71 50.53 49.06 50.51 49.35 50.43 49.93 50.27 50.53 50.16 51.11 49.99 52.0238 49.7953 52.949 49.6583 53.88 49.58 53.9697 49.9881 54.3552 50.261 54.77 50.21 54.8843 50.2034 54.9982 50.2276 55.1 50.28 55.22 50.35 55.34 50.45 55.25 50.62 54.5233 50.5452 53.7983 50.7771 53.25 51.26 53.0987 51.3377 52.93 51.3756 52.76 51.37 52.5267 51.3586 52.2953 51.3217 52.07 51.26 51.0441 51.035 49.971 51.2102 49.07 51.75 49.0221 52.0487 49.0639 52.355 49.19 52.63 49.35 52.95 49.72 52.77 49.88 52.91L49.88 54.1C49.8778 54.4033 49.6662 54.6647 49.37 54.73 49.1151 54.8218 48.8308 54.7214 48.69 54.49 48.49 54.26 48.26 54.04 48.08 53.85 47.5831 53.834 47.127 54.1235 46.93 54.58 46.6555 55.0873 46.5704 55.6757 46.69 56.24 46.69 56.47 46.79 56.7 46.82 56.93 46.8787 57.1689 46.7974 57.4205 46.61 57.58L45.6 57.58C45.6 57.75 45.66 57.93 45.6 58.01 45.4189 58.2752 45.1102 58.4238 44.79 58.4 44.3894 58.364 44.0368 58.1213 43.86 57.76 43.235 57.7525 42.6198 57.915 42.08 58.23 41.8266 58.3609 41.5662 58.4778 41.3 58.58 41.08 58.66 40.85 58.69 40.64 58.79 40.4332 58.9128 40.2329 59.0463 40.04 59.19L39.11 58.47 39.11 58.47C38.8091 58.2622 38.4109 58.2622 38.11 58.47 37.8643 58.6136 37.6025 58.7277 37.33 58.81 37.1711 58.8641 36.9989 58.8641 36.84 58.81 36.78 58.81 36.78 58.61 36.74 58.48L35.95 58.22C35.82 57.99 35.68 57.77 35.57 57.54 35.4377 57.3562 35.4795 57.1 35.6632 56.9677 35.6719 56.9615 35.6809 56.9556 35.69 56.95 35.6963 56.8134 35.7232 56.6785 35.77 56.55 35.8732 56.3484 36.0008 56.1604 36.15 55.99 36.3186 55.8508 36.4993 55.727 36.69 55.62 36.11 55.2 36.1 55.17 36.27 54.62 36.2955 54.5351 36.3256 54.4517 36.36 54.37 36.4216 54.2342 36.3615 54.0742 36.2258 54.0125 36.2239 54.0117 36.2219 54.0108 36.22 54.01 36.0863 53.9848 35.9482 54.0175 35.84 54.1 35.6505 54.2777 35.4734 54.4681 35.31 54.67 35.0702 54.6548 34.8298 54.6548 34.59 54.67 34.52 54.67 34.48 54.83 34.42 54.92L34.69 55.03C34.82 55.43 34.35 55.3 34.22 55.55 34.34 55.97 34.07 56.55 34.57 56.9 34.6098 56.9436 34.6313 57.0009 34.63 57.06 34.7631 57.6666 34.8566 58.2813 34.91 58.9 34.79 58.98 34.67 59.04 34.56 59.13L34.24 59.45C33.83 59.16 33.44 59.09 33.08 59.45 33.02 59.52 32.87 59.5 32.76 59.52 32.4718 59.5379 32.1847 59.5713 31.9 59.62 31.6 59.68 31.55 59.84 31.64 60.21 31.6566 60.3227 31.6566 60.4373 31.64 60.55L30.9 60.27C30.7722 60.5818 30.6077 60.8772 30.41 61.15 30.15 61.43 30.48 61.79 30.2 62.07 29.3826 62.1889 28.5913 62.4459 27.86 62.83 27.8321 62.9788 27.8121 63.1291 27.8 63.28 27.8102 63.617 27.5719 63.9107 27.24 63.97 26.8026 64.0649 26.4335 64.3564 26.24 64.76 25.7384 64.8475 25.2241 64.7043 24.84 64.37 24.84 64.37 24.65 64.37 24.53 64.37 24.68 64.78 24.91 65.1 24.7 65.54 24.24 65.54 23.76 65.76 23.3 65.43 23.2204 65.3949 23.1296 65.3949 23.05 65.43L21.96 65.67 22.13 66.4C22.56 66.54 22.97 66.69 23.39 66.79 23.768 66.8664 24.0809 67.1303 24.22 67.49 24.4048 67.9443 24.7355 68.3243 25.16 68.57 25.2632 69.5221 25.1886 70.4851 24.94 71.41 24.8943 71.7994 24.5415 72.0781 24.1521 72.0324 24.1142 72.028 24.0767 72.0205 24.04 72.01 23.3529 71.9303 22.6617 71.8902 21.97 71.89 21.08 71.84 20.2 71.7 19.3 71.69 19.16 71.69 19.03 71.59 18.89 71.57 18.7787 71.5393 18.6613 71.5393 18.55 71.57 18.19 71.78 17.83 72.01 17.44 72.26 17.51 72.41 17.58 72.56 17.64 72.72 17.7189 72.8717 17.7633 73.0391 17.77 73.21 17.7357 73.5869 17.773 73.9669 17.88 74.33 17.925 74.5544 17.925 74.7856 17.88 75.01 17.8047 75.5574 17.6212 76.0843 17.34 76.56 17.2652 76.7344 17.2212 76.9205 17.21 77.11L17.79 77.53 17.79 79C18.1853 79.1136 18.6047 79.1136 19 79 19.5 78.85 19.78 79 20.08 79.5 20.14 79.6 20.19 79.7 20.24 79.8 20.3598 80.02 20.5895 80.1578 20.84 80.16 21.4276 79.6325 22.2179 79.3911 23 79.5 23.4274 79.4945 23.8531 79.4442 24.27 79.35 24.4397 78.9595 24.7725 78.6633 25.18 78.54 25.2834 78.4886 25.3701 78.4088 25.43 78.31L26.2 77.25C26.1724 77.1838 26.1389 77.1202 26.1 77.06 25.8668 76.7074 25.9039 76.2412 26.19 75.93 26.43 75.61 26.7 75.3 26.92 74.93 27.0537 74.7028 27.2803 74.5456 27.54 74.5 28.0131 74.3606 28.4642 74.1553 28.88 73.89 29.156 73.7655 29.3094 73.4669 29.25 73.17 29.25 73.09 29.25 73.01 29.19 72.92 29.09 72.33 29.14 72.22 29.64 71.92L30.08 71.7C30.3745 71.7488 30.6717 71.7788 30.97 71.79 31.29 71.79 31.48 72.04 31.76 72.11 32.0618 72.2252 32.4028 72.1593 32.64 71.94 32.8992 71.7095 33.1971 71.5267 33.52 71.4 33.8173 71.2942 34.0872 71.1234 34.31 70.9 34.42 70.78 34.62 70.63 34.74 70.66 35.1299 70.7633 35.511 70.8971 35.88 71.06 36.09 71.15 36.14 71.35 36.21 71.55 36.3383 72.0252 36.6024 72.4527 36.97 72.78 37.43 73.13 37.84 73.54 38.28 73.91 38.4215 74.052 38.5971 74.1553 38.79 74.21 39.2691 74.3195 39.7149 74.5424 40.09 74.86 40.35 75.03 40.66 75.13 40.8 75.46 40.86 75.5577 40.9518 75.6319 41.06 75.67 41.74 75.92 41.7 76.56 41.87 77.08L41.49 77.71C41.4 77.71 41.38 77.78 41.35 77.78 40.6003 78.0616 39.7889 78.1376 39 78 38.84 77.94 38.61 78.06 38.43 78.13 38.25 78.2 38.38 78.28 38.35 78.37L40.35 79.43C40.5093 79.5185 40.7102 79.461 40.7987 79.3017 40.8278 79.2493 40.8421 79.1899 40.84 79.13 40.84 79.01 40.79 78.9 40.79 78.79 40.7837 78.4941 40.9171 78.2125 41.15 78.03L41.64 78.03 41.96 77.7C42.18 77.45 42.19 77.06 42.58 76.9 42.73 76.84 42.68 76.58 42.58 76.44 42.4535 76.3058 42.3164 76.1821 42.17 76.07 42.1797 75.7192 42.3841 75.403 42.7 75.25 42.9457 75.3119 43.1863 75.3921 43.42 75.49 43.6062 75.6281 43.7772 75.7856 43.93 75.96 43.93 75.73 43.99 75.59 43.93 75.54 43.7361 75.3275 43.514 75.1424 43.27 74.99 42.73 74.67 42.16 74.4 41.62 74.12L41.62 73.65C40.6214 73.746 39.7061 73.0874 39.48 72.11 39.404 71.8578 39.2315 71.6458 39 71.52L38.49 71.19C38.2024 71.0305 38.0344 70.7178 38.06 70.39 38.0815 70.057 38.0815 69.723 38.06 69.39 38.53 69.26 38.92 68.9 39.45 69.07 39.52 69.39 39.25 69.76 39.69 69.95L40.16 69.56C40.4107 69.603 40.607 69.7993 40.65 70.05 40.823 70.8912 41.4656 71.5571 42.3 71.76 42.5157 71.837 42.7206 71.9412 42.91 72.07 43.24 72.29 43.55 72.56 43.91 72.75 44.3954 73.0133 44.821 73.3742 45.16 73.81 45.16 74.13 45.16 74.45 45.06 74.81 44.9951 75.0967 45.0777 75.3968 45.28 75.61 45.3997 75.7335 45.5038 75.8712 45.59 76.02 45.7729 76.381 46.0581 76.6801 46.41 76.88 46.47 76.88 46.55 77 46.54 77.06 46.48 77.45 46.75 77.54 47.03 77.65 47.03 77.65 47.09 77.74 47.12 77.79L46.77 78.23C47.0723 78.4762 47.2544 78.8404 47.27 79.23 47.69 79.02 47.97 79.65 48.42 79.3L48.28 78.67C48.65 78.54 48.56 78.33 48.45 78.12L49.37 78.12 49.55 77.74 49.55 77.74C49.49 77.39 49.37 77.25 49.09 77.35 48.8333 77.4462 48.5441 77.3836 48.35 77.19 48.35 76.93 48.41 76.65 48.45 76.38 48.28 76.03 47.89 75.73 48.23 75.24 48.3707 75.3218 48.5179 75.3921 48.67 75.45 48.8071 75.49 48.9529 75.49 49.09 75.45 49.17 75.45 49.22 75.27 49.24 75.17 49.26 75.07 49.41 74.96 49.55 74.92 50.1943 74.637 50.9337 74.6702 51.55 75.01 51.8671 75.2162 52.2769 75.2123 52.59 75 53.0132 74.6614 53.5848 74.5737 54.09 74.77 54.1863 74.6727 54.2978 74.5917 54.42 74.53 54.1499 74.4611 53.8857 74.3708 53.63 74.26 53.4834 74.1689 53.3628 74.0415 53.28 73.89 53.13 73.62 53 73.33 52.86 73.04 53.31 72.04 53.31 72.04 53.74 71.79 53.6426 71.0681 54.0577 70.3749 54.74 70.12L54.86 69.41 56.06 68.19C56.4329 68.0635 56.8371 68.0635 57.21 68.19 57.27 68.67 57.35 68.76 57.75 68.74 58.15 68.72 58.38 68.62 58.67 68.91 58.58 69.3 58.07 69.21 57.89 69.59L58.6 70.01 58.72 70.72C58.89 70.72 59.07 70.72 59.15 70.72 59.465 70.5134 59.8 70.3392 60.15 70.2 60.4009 70.0655 60.6887 70.0163 60.97 70.06 61.17 70.06 61.3 69.98 61.24 69.7L60.93 69.7C60.4793 69.8314 60.0075 69.5726 59.876 69.1219 59.8644 69.082 59.8557 69.0412 59.85 69 59.802 68.8266 59.8756 68.6424 60.03 68.55 60.1046 68.5061 60.1813 68.466 60.26 68.43 61.418 67.911 62.6492 67.5737 63.91 67.43 63.91 67.43 63.99 67.49 64.04 67.52 63.742 67.863 63.3643 68.1274 62.94 68.29L63.13 68.71C62.76 69.1 62.6 69.71 61.97 69.86 62.29 70.31 62.29 70.31 62.62 70.48 62.95 70.65 63.38 70.86 63.74 71.08 64.44 71.08 65.13 71.08 65.83 71.17 67.2508 71.2409 68.6454 71.5803 69.94 72.17 70.4299 72.4518 70.9456 72.6861 71.48 72.87 71.7566 72.9456 72.0442 72.9727 72.33 72.95L72.33 72.95C72.1754 72.7423 72.0787 72.4973 72.05 72.24 72.1222 71.6405 71.8101 71.0602 71.27 70.79L72.18 69.35C72.7762 69.1435 73.3289 68.8282 73.81 68.42 74.3245 68.0997 74.8749 67.8412 75.45 67.65 75.6148 67.5904 75.7952 67.5904 75.96 67.65L76.15 67.73C76.2016 66.6606 76.4384 65.6084 76.85 64.62 77.1394 63.6505 77.7405 62.8034 78.56 62.21 79.4354 61.8453 80.3842 61.6912 81.33 61.76 81.7159 61.795 82.1041 61.795 82.49 61.76 82.79 61.7 82.79 61.41 82.79 61.15 82.7816 60.6182 82.7179 60.0887 82.6 59.57 82.4644 59.0421 82.4853 58.4862 82.66 57.97 81.9868 57.7522 81.5465 57.1062 81.59 56.4 81.7615 55.6338 82.1033 54.9161 82.59 54.3 82.8 53.98 83.01 53.66 83.21 53.3 83.41 52.94 83.66 52.46 83.88 52.04 84.38 51.1 84.88 50.15 85.31 49.18 85.762 48.2235 86.0977 47.2164 86.31 46.18 86.388 45.6769 86.4314 45.169 86.44 44.66 86.4227 44.1349 86.3557 43.6125 86.24 43.1 86.0291 42.3371 86.2046 41.5192 86.71 40.91 86.9503 40.7002 87.2042 40.5064 87.47 40.33 87.8225 40.0358 88.1382 39.7 88.41 39.33 89.0453 38.4208 89.422 37.3564 89.5 36.25L89.5 36.25C89.0361 36.0773 88.5933 35.8525 88.18 35.58ZM35.84 45.41C35.8047 45.318 35.7646 45.2279 35.72 45.14L36.72 45C36.58 45.38 36.23 45.39 35.84 45.41ZM36.84 44.95C36.8247 44.8338 36.8247 44.7162 36.84 44.6 36.84 44.6 36.97 44.54 37.04 44.52 37.11 44.5 37.12 44.7 37.09 44.73 37.0087 44.8317 36.9146 44.9224 36.81 45ZM43.18 51.13C43.2718 51.1851 43.3368 51.2755 43.36 51.38 43.36 51.48 43.14 51.58 43.01 51.51 42.88 51.44 42.62 51.28 42.37 51.14 42.6179 51.0312 42.8994 51.0276 43.15 51.13ZM35.28 54.6 35.28 54.6C35.4 54.58 35.34 54.59 35.28 54.6ZM48.41 78C48.41 78 48.41 78.14 48.41 78.22 48.1304 78.1753 47.8698 78.0502 47.66 77.86 48.05 77.67 48.23 77.7 48.41 78ZM57.64 50.21C57.4207 50.1848 57.1993 50.1848 56.98 50.21 56.7933 50.3055 56.6188 50.423 56.46 50.56 56.3585 50.4643 56.2649 50.3606 56.18 50.25L55.18 48.65C55.2387 48.537 55.3127 48.4327 55.4 48.34 55.6114 48.1716 55.8317 48.0147 56.06 47.87 56.58 48.17 57.06 48.45 57.59 48.79 57.79 48.93 57.88 49.2 58.05 49.44Z"/><path d="M11.83 42.39C11.53 42.3 11.75 41.83 11.38 41.83 11.31 41.48 10.98 41.72 10.81 41.58 10.6773 41.4368 10.5176 41.3212 10.34 41.24 10.06 41.17 10.09 41.5 9.95 41.62 9.81 41.74 9.86 41.71 9.81 41.71 9.50527 41.7511 9.2065 41.8283 8.92 41.94 8.78 41.94 8.61 41.84 8.46 41.78L8.19 42C7.53 41.63 7.52 41.63 7.03 42.3L6.42 41.88C6.42 41.99 6.33 42.04 6.33 42.09 6.33 42.5 6.33 42.49 5.92 42.63 5.78093 42.6901 5.64992 42.7674 5.53 42.86 5.12 42.67 5.16 42.35 5.24 42.03 5.02 41.85 4.81 41.7 4.62 41.52 4.55892 41.4346 4.51168 41.3401 4.48 41.24L4.48 41.24 4 42C3.75 42.08 3.31 41.51 3.16 42.19 3.16 42.32 3.46 42.28 3.35 42.49 3.24 42.7 2.87 42.38 2.78 42.79 3.00245 42.7905 3.22412 42.7637 3.44 42.71 3.82911 42.585 4.25132 42.6136 4.62 42.79 4.62 42.79 4.68 42.87 4.71 42.92L4.52 43.2C4.52 43.36 4.79 43.29 4.71 43.46L3.21 43.75 3.21 43.81 4.14 43.88C4.39 44.12 4.6 44.28 4.77 44.46 4.9128 44.5819 4.92971 44.7966 4.80777 44.9393 4.76837 44.9855 4.71735 45.0202 4.66 45.04 4.51 45.13 4.34 45.19 4.1 45.3 4.18988 45.3067 4.28012 45.3067 4.37 45.3 5.05435 45.1163 5.78479 45.2405 6.37 45.64 7.15332 46.0388 8.08921 45.9931 8.83 45.52 8.94543 45.4325 9.0785 45.371 9.22 45.34 9.73677 45.182 10.2442 44.995 10.74 44.78 11.2922 44.6462 11.795 44.3584 12.19 43.95 12.38 43.75 12.55 43.53 12.71 43.34L12.57 42.7C12.3315 42.5782 12.0841 42.4746 11.83 42.39Z"/></g></svg>

